<svg width="16" height="18" viewBox="0 0 16 18" fill="none" xmlns="http://www.w3.org/2000/svg">
<path d="M4 1H2C1.44772 1 1 1.44772 1 2V16C1 16.5523 1.44772 17 2 17H4C4.55228 17 5 16.5523 5 16V2C5 1.44772 4.55228 1 4 1Z" fill="black" stroke="black" stroke-width="2" stroke-linecap="round" stroke-linejoin="round"/>
<path d="M14 1H12C11.4477 1 11 1.44772 11 2V16C11 16.5523 11.4477 17 12 17H14C14.5523 17 15 16.5523 15 16V2C15 1.44772 14.5523 1 14 1Z" fill="black" stroke="black" stroke-width="2" stroke-linecap="round" stroke-linejoin="round"/>
</svg>
