<svg width="17" height="16" viewBox="0 0 17 16" fill="none" xmlns="http://www.w3.org/2000/svg">
<path d="M10.7143 16C10.4402 15.9998 10.1734 15.9176 9.95304 15.7655C9.94071 15.7575 9.92946 15.749 9.91768 15.74L5.01804 11.9952L2 12C1.65901 12 1 11.9952 0.5 11.5C0 11.0048 0 10.3182 0 10V6C0 5.68175 0 5 0.5 4.5C1 4 1.65901 4.00401 2 4.00401H5.01696L9.91661 0.259173C9.92839 0.250173 9.93964 0.241674 9.95196 0.233674C10.1435 0.102045 10.3704 0.0225897 10.6075 0.00414788C10.8445 -0.0142939 11.0824 0.0290005 11.2947 0.129215C11.5069 0.22943 11.6852 0.382635 11.8098 0.571789C11.9343 0.760943 12.0001 0.978629 12 1.20063V14.8001C12 15.1183 11.8645 15.4235 11.6234 15.6485C11.3823 15.8736 11.0553 16 10.7143 16Z" stroke="none" fill="current"/>
<path d="M15 6C15 6 16 6.5 16 8C16 9.5 15 10 15 10" stroke="current" fill="none" stroke-width="2" stroke-linecap="round"/>
</svg>
